# xmcd
#
# Track frame offsets: 
#        150
#        13797
#        26461
#        39686
#        53448
#        79127
#        97834
#        120827
#        133847
#        149655
#        172381
#        183735
#        204967
#        218414
#        236617
#
# Disc length: 3274 seconds
#
# Revision: 6
# Processed by: cddbd v1.5.1PL0 Copyright (c) Steve Scherf et al.
# Submitted via: ExactAudioCopy v0.95a5
#
DISCID=cb0cc80f
DTITLE=Various Artist - Essential Texas Blues (Disk 1 of 2)
DYEAR=1997
DGENRE=Blues
TTITLE0=Kim Wilson - Baby Please Don't Lie To Me
TTITLE1=Smokin' Joe Kubek - Comin' Home Today
TTITLE2=Johnny Copeland - Everybody Wants a Piece of Me
TTITLE3=Albert Collins - Frosty
TTITLE4=Anson Funderburg and the Rockets (featuring Sam Myers) - Changin
TTITLE4=g Neighborhoods
TTITLE5=Lou Ann Barton - Stop These Teardrops
TTITLE6=T-Bone Walker - I Want a Little Girl
TTITLE7=Zuzu Bollin - Why Don't You Eat Where You Slept Last Night?
TTITLE8=Long John Hunter - Nasty Ways
TTITLE9=Freddie King - Love Her With a Feeling
TTITLE10=Smokey Hogg - Little School Girl
TTITLE11=Grady Gaines - There Is Something On Your Mind
TTITLE12=Eddie Vinson - Kidney Stew Blues
TTITLE13=Robert Shaw - The Cows
TTITLE14=Hop Wilson - Chicken Stuff
EXTD=LABEL =Platinum Entertainment, Inc.\nID =5141612862\nUPC =7514
EXTD=16-1286-27\nCOPYRIGHT =1997
EXTT0=
EXTT1=
EXTT2=
EXTT3=
EXTT4=
EXTT5=
EXTT6=
EXTT7=
EXTT8=
EXTT9=
EXTT10=
EXTT11=
EXTT12=
EXTT13=
EXTT14=
PLAYORDER=
